<svg width="883" height="176" viewBox="0 0 883 176" fill="none" xmlns="http://www.w3.org/2000/svg">
<path d="M62.4 62.4L152 24V152H24L62.4 62.4Z" fill="#0A58BF"/>
<path d="M188 60.1775H198.699V118.663H188V60.1775ZM192.597 88.6684H208.227V98.0261H192.597V88.6684ZM208.227 88.6684C211.236 88.6684 213.799 88.3899 215.916 87.8329C218.09 87.2759 219.733 86.3011 220.848 84.9086C222.018 83.5161 222.603 81.5666 222.603 79.0601C222.603 76.5535 222.018 74.604 220.848 73.2115C219.733 71.819 218.09 70.8442 215.916 70.2872C213.799 69.7302 211.236 69.4517 208.227 69.4517V60.1775C213.353 60.1775 217.811 60.7903 221.6 62.0157C225.445 63.1854 228.426 65.1349 230.543 67.8642C232.661 70.5936 233.719 74.3255 233.719 79.0601C233.719 83.7389 232.661 87.4708 230.543 90.2559C228.426 92.9852 225.445 94.9626 221.6 96.188C217.811 97.4134 213.353 98.0261 208.227 98.0261V88.6684ZM192.597 60.1775H208.227V69.4517H192.597V60.1775ZM209.982 91.6762H220.597L233.719 118.663H221.6L209.982 91.6762Z" fill="#4B5158"/>
<path d="M244.242 71.8747H254.774V118.663H244.242V71.8747ZM243.741 56H255.192V67.53H243.741V56Z" fill="#4B5158"/>
<path d="M265.775 71.8747H276.306V79.3107C276.919 77.7511 277.839 76.3307 279.065 75.0496C280.346 73.7128 281.99 72.6266 283.996 71.7911C286.002 70.9556 288.482 70.5379 291.435 70.5379C294.444 70.5379 297.118 71.1506 299.459 72.376C301.799 73.6014 303.638 75.6345 304.975 78.4752C306.368 81.2602 307.065 85.0479 307.065 89.8381V118.663H296.533V90.9243C296.533 88.752 296.338 86.8303 295.948 85.1593C295.558 83.4326 294.778 82.0957 293.608 81.1488C292.494 80.1462 290.822 79.6449 288.593 79.6449C286.643 79.6449 284.72 80.2019 282.826 81.3159C280.931 82.4299 279.371 84.1567 278.145 86.4961C276.919 88.8355 276.306 91.8712 276.306 95.6031V118.663H265.775V71.8747Z" fill="#4B5158"/>
<path d="M317.447 56H327.978V118.663H317.447V56ZM329.733 90.9243L340.097 90.1723L357.064 118.663H345.363L329.733 90.9243ZM355.56 71.8747L326.139 108.136L321.876 98.1097L343.106 71.8747H355.56Z" fill="#4B5158"/>
<path d="M389.959 91.9269H400.406V118.663H389.959V91.9269ZM380.597 70.5379C387.117 70.5379 392.048 72.4595 395.391 76.3029C398.735 80.1462 400.406 85.3542 400.406 91.9269H389.959C389.959 89.5875 389.68 87.5265 389.123 85.7441C388.621 83.906 387.674 82.4578 386.281 81.3995C384.944 80.3412 383.049 79.812 380.597 79.812C377.366 79.812 374.914 80.6475 373.242 82.3185C371.571 83.9896 370.735 85.9948 370.735 88.3342H359.702C359.702 85.215 360.51 82.3185 362.126 79.6449C363.797 76.9156 366.193 74.7154 369.314 73.0444C372.434 71.3734 376.195 70.5379 380.597 70.5379ZM390.878 89.4204L392.633 96.6893C385.501 96.2437 380.291 96.8564 377.003 98.5274C373.716 100.143 372.072 102.232 372.072 104.794C372.072 106.743 372.741 108.191 374.078 109.138C375.415 110.085 377.143 110.559 379.26 110.559C381.043 110.559 382.743 110.225 384.359 109.556C386.03 108.888 387.368 107.802 388.371 106.298C389.429 104.738 389.959 102.705 389.959 100.198L392.215 104.042C392.048 107.161 391.352 109.918 390.126 112.313C388.956 114.708 387.256 116.602 385.027 117.995C382.854 119.332 380.207 120 377.087 120C374.022 120 371.292 119.443 368.896 118.329C366.5 117.159 364.605 115.488 363.212 113.316C361.819 111.144 361.123 108.498 361.123 105.379C361.123 102.371 361.708 99.8921 362.878 97.9426C364.104 95.993 365.748 94.4334 367.809 93.2637C369.871 92.094 372.183 91.2585 374.747 90.7572C377.31 90.2002 379.984 89.8381 382.771 89.671C385.557 89.5039 388.259 89.4204 390.878 89.4204Z" fill="#4B5158"/>
<path d="M410.998 71.8747H421.53V118.663H410.998V71.8747ZM410.497 56H421.948V67.53H410.497V56Z" fill="#4B5158"/>
<path d="M452.459 60.1775H463.158V118.663H452.459V60.1775Z" fill="#4B5158"/>
<path d="M473.996 71.8747H484.527V79.3107C485.14 77.7511 486.06 76.3307 487.285 75.0496C488.567 73.7128 490.211 72.6266 492.217 71.7911C494.223 70.9556 496.702 70.5379 499.656 70.5379C502.665 70.5379 505.339 71.1506 507.679 72.376C510.02 73.6014 511.859 75.6345 513.196 78.4752C514.589 81.2602 515.285 85.0479 515.285 89.8381V118.663H504.754V90.9243C504.754 88.752 504.559 86.8303 504.169 85.1593C503.779 83.4326 502.999 82.0957 501.829 81.1488C500.714 80.1462 499.043 79.6449 496.814 79.6449C494.864 79.6449 492.941 80.2019 491.047 81.3159C489.152 82.4299 487.592 84.1567 486.366 86.4961C485.14 88.8355 484.527 91.8712 484.527 95.6031V118.663H473.996V71.8747Z" fill="#4B5158"/>
<path d="M544.971 120C540.625 120 536.863 118.97 533.687 116.909C530.567 114.792 528.143 111.868 526.416 108.136C524.744 104.404 523.908 100.143 523.908 95.3525C523.908 90.5065 524.744 86.2176 526.416 82.4856C528.143 78.7537 530.567 75.8294 533.687 73.7128C536.863 71.5962 540.625 70.5379 544.971 70.5379C548.314 70.5379 551.156 71.2063 553.496 72.5431C555.892 73.8242 557.787 75.6623 559.18 78.0574V112.564C557.842 114.848 556.004 116.658 553.663 117.995C551.379 119.332 548.481 120 544.971 120ZM546.642 110.559C549.484 110.559 551.825 109.89 553.663 108.554C555.502 107.217 556.867 105.406 557.759 103.123C558.706 100.783 559.18 98.1932 559.18 95.3525C559.18 92.4561 558.706 89.866 557.759 87.5822C556.867 85.2428 555.502 83.4047 553.663 82.0679C551.825 80.6754 549.484 79.9791 546.642 79.9791C544.135 79.9791 541.962 80.6475 540.123 81.9843C538.34 83.2655 536.975 85.0757 536.028 87.4151C535.136 89.7546 534.69 92.4004 534.69 95.3525C534.69 98.2489 535.136 100.867 536.028 103.206C536.975 105.49 538.34 107.3 540.123 108.637C541.962 109.918 544.135 110.559 546.642 110.559ZM559.18 118.663V56H569.711V118.663H559.18Z" fill="#4B5158"/>
<path d="M621.392 118.663H610.86V71.8747H621.392V118.663ZM610.86 94.9347L612.198 104.376C612.198 105.824 611.975 107.44 611.529 109.222C611.083 111.004 610.247 112.731 609.021 114.402C607.851 116.017 606.18 117.354 604.007 118.413C601.889 119.471 599.131 120 595.732 120C592.723 120 590.048 119.387 587.708 118.162C585.368 116.936 583.501 114.903 582.108 112.063C580.771 109.222 580.102 105.434 580.102 100.7V71.8747H590.55V99.6136C590.55 101.786 590.745 103.735 591.135 105.462C591.525 107.133 592.305 108.47 593.475 109.473C594.645 110.419 596.345 110.893 598.574 110.893C600.524 110.893 602.446 110.336 604.341 109.222C606.235 108.108 607.796 106.381 609.021 104.042C610.247 101.647 610.86 98.611 610.86 94.9347Z" fill="#4B5158"/>
<path d="M641.284 103.875C641.563 106.381 642.649 108.219 644.544 109.389C646.438 110.503 648.695 111.06 651.314 111.06C653.822 111.06 655.883 110.587 657.499 109.64C659.115 108.693 659.923 107.189 659.923 105.128C659.923 103.903 659.394 102.956 658.335 102.287C657.276 101.619 655.911 101.09 654.239 100.7C652.568 100.254 650.701 99.8642 648.639 99.53C646.633 99.1958 644.6 98.7781 642.538 98.2768C640.532 97.7198 638.665 96.9678 636.938 96.0209C635.266 95.0183 633.901 93.6815 632.842 92.0104C631.839 90.2837 631.338 88.0836 631.338 85.4099C631.338 82.9034 632.146 80.5083 633.762 78.2245C635.378 75.9408 637.634 74.1027 640.532 72.7102C643.485 71.262 646.856 70.5379 650.645 70.5379C654.044 70.5379 657.165 71.2341 660.007 72.6266C662.904 73.9635 665.217 75.8294 666.944 78.2245C668.671 80.6197 669.535 83.4047 669.535 86.5796H659.254C659.032 84.0731 658.056 82.2628 656.329 81.1488C654.657 80.0348 652.651 79.4778 650.311 79.4778C647.469 79.4778 645.324 80.0348 643.875 81.1488C642.482 82.2628 641.786 83.6832 641.786 85.4099C641.786 86.7467 642.287 87.8051 643.29 88.5849C644.349 89.309 645.714 89.8938 647.386 90.3394C649.113 90.7293 650.98 91.0914 652.986 91.4256C655.047 91.7598 657.081 92.1775 659.087 92.6789C661.149 93.1802 663.016 93.9043 664.687 94.8512C666.359 95.7981 667.696 97.1071 668.699 98.7781C669.758 100.393 670.287 102.51 670.287 105.128C670.287 108.08 669.479 110.67 667.863 112.898C666.303 115.126 664.074 116.881 661.177 118.162C658.279 119.387 654.852 120 650.896 120C647.219 120 643.875 119.304 640.866 117.911C637.857 116.463 635.433 114.541 633.595 112.146C631.812 109.695 630.864 106.938 630.753 103.875H641.284Z" fill="#4B5158"/>
<path d="M676.699 71.8747H701.356V80.8146H676.699V71.8747ZM682.884 60.1775H693.415V105.128C693.415 106.688 693.805 107.857 694.585 108.637C695.366 109.361 696.536 109.723 698.096 109.723H702.693V118.663H698.012C692.997 118.663 689.208 117.493 686.645 115.154C684.138 112.815 682.884 109.473 682.884 105.128V60.1775Z" fill="#4B5158"/>
<path d="M712.091 71.8747H722.622V118.663H712.091V71.8747ZM722.622 94.9347L721.368 87.1645C721.368 85.7163 721.508 84.0453 721.786 82.1514C722.121 80.2576 722.817 78.4473 723.876 76.7206C724.99 74.9382 726.662 73.4621 728.891 72.2924C731.12 71.1227 734.101 70.5379 737.834 70.5379V80.8982C734.546 80.8982 731.76 81.3159 729.476 82.1514C727.191 82.9312 725.464 84.3238 724.294 86.329C723.179 88.3342 722.622 91.2028 722.622 94.9347Z" fill="#4B5158"/>
<path d="M746.388 71.8747H756.919V118.663H746.388V71.8747ZM745.887 56H757.337V67.53H745.887V56Z" fill="#4B5158"/>
<path d="M789.825 120C784.978 120 780.771 118.97 777.204 116.909C773.638 114.792 770.852 111.868 768.846 108.136C766.896 104.404 765.921 100.143 765.921 95.3525C765.921 90.5065 766.896 86.2176 768.846 82.4856C770.852 78.7537 773.638 75.8294 777.204 73.7128C780.771 71.5962 784.978 70.5379 789.825 70.5379C793.001 70.5379 795.983 71.1784 798.769 72.4595C801.61 73.6849 804.062 75.5231 806.124 77.9739C808.186 80.369 809.69 83.3212 810.637 86.8303C811.585 90.3394 811.752 94.322 811.139 98.7781H771.939V90.1723H804.619L800.775 92.5953C800.997 90.4787 800.719 88.4735 799.939 86.5796C799.214 84.6301 798.016 83.0426 796.345 81.8172C794.673 80.5918 792.5 79.9791 789.825 79.9791C786.816 79.9791 784.337 80.6754 782.387 82.0679C780.436 83.4047 778.988 85.2428 778.04 87.5822C777.149 89.866 776.703 92.4561 776.703 95.3525C776.703 98.1932 777.149 100.783 778.04 103.123C778.988 105.406 780.436 107.217 782.387 108.554C784.337 109.89 786.816 110.559 789.825 110.559C792.611 110.559 794.868 109.918 796.596 108.637C798.323 107.3 799.521 105.685 800.19 103.791H811.222C810.554 107.022 809.244 109.862 807.294 112.313C805.344 114.708 802.892 116.602 799.939 117.995C796.986 119.332 793.614 120 789.825 120Z" fill="#4B5158"/>
<path d="M829.997 103.875C830.276 106.381 831.362 108.219 833.257 109.389C835.151 110.503 837.408 111.06 840.027 111.06C842.534 111.06 844.596 110.587 846.212 109.64C847.828 108.693 848.636 107.189 848.636 105.128C848.636 103.903 848.106 102.956 847.048 102.287C845.989 101.619 844.624 101.09 842.952 100.7C841.281 100.254 839.414 99.8642 837.352 99.53C835.346 99.1958 833.312 98.7781 831.251 98.2768C829.245 97.7198 827.378 96.9678 825.651 96.0209C823.979 95.0183 822.614 93.6815 821.555 92.0104C820.552 90.2837 820.051 88.0836 820.051 85.4099C820.051 82.9034 820.859 80.5083 822.475 78.2245C824.091 75.9408 826.347 74.1027 829.245 72.7102C832.198 71.262 835.569 70.5379 839.358 70.5379C842.757 70.5379 845.878 71.2341 848.719 72.6266C851.617 73.9635 853.929 75.8294 855.657 78.2245C857.384 80.6197 858.248 83.4047 858.248 86.5796H847.967C847.744 84.0731 846.769 82.2628 845.042 81.1488C843.37 80.0348 841.364 79.4778 839.024 79.4778C836.182 79.4778 834.037 80.0348 832.588 81.1488C831.195 82.2628 830.499 83.6832 830.499 85.4099C830.499 86.7467 831 87.8051 832.003 88.5849C833.062 89.309 834.427 89.8938 836.099 90.3394C837.826 90.7293 839.693 91.0914 841.699 91.4256C843.76 91.7598 845.794 92.1775 847.8 92.6789C849.862 93.1802 851.728 93.9043 853.4 94.8512C855.072 95.7981 856.409 97.1071 857.412 98.7781C858.471 100.393 859 102.51 859 105.128C859 108.08 858.192 110.67 856.576 112.898C855.016 115.126 852.787 116.881 849.89 118.162C846.992 119.387 843.565 120 839.609 120C835.931 120 832.588 119.304 829.579 117.911C826.57 116.463 824.146 114.541 822.307 112.146C820.524 109.695 819.577 106.938 819.466 103.875H829.997Z" fill="#4B5158"/>
</svg>
